<?xml version="1.0" encoding="UTF-8"?>
<!--Generator: Apple Native CoreSVG 148-->
<!DOCTYPE svg
PUBLIC "-//W3C//DTD SVG 1.1//EN"
       "http://www.w3.org/Graphics/SVG/1.1/DTD/svg11.dtd">
<svg version="1.1" xmlns="http://www.w3.org/2000/svg" xmlns:xlink="http://www.w3.org/1999/xlink" width="3300" height="2200">
 <!--glyph: "uni1008D4.medium", point size: 100.000000, font version: "Version 16.0d11e1", template writer version: "8"-->
 <g id="Notes">
  <rect height="2200" id="artboard" style="fill:white;opacity:1" width="3300" x="0" y="0"/>
  <line id="" style="fill:none;stroke:black;opacity:1;stroke-width:0.5;" x1="263" x2="3036" y1="292" y2="292"/>
  <text style="stroke:none;fill:black;font-family:-apple-system,&quot;SF Pro Display&quot;,&quot;SF Pro Text&quot;,Helvetica,sans-serif;font-weight:bold;" transform="matrix(1 0 0 1 263 322)">Weight/Scale Variations</text>
  <text style="stroke:none;fill:black;font-family:-apple-system,&quot;SF Pro Display&quot;,&quot;SF Pro Text&quot;,Helvetica,sans-serif;text-anchor:middle;" transform="matrix(1 0 0 1 559.711 322)">Ultralight</text>
  <text style="stroke:none;fill:black;font-family:-apple-system,&quot;SF Pro Display&quot;,&quot;SF Pro Text&quot;,Helvetica,sans-serif;text-anchor:middle;" transform="matrix(1 0 0 1 856.422 322)">Thin</text>
  <text style="stroke:none;fill:black;font-family:-apple-system,&quot;SF Pro Display&quot;,&quot;SF Pro Text&quot;,Helvetica,sans-serif;text-anchor:middle;" transform="matrix(1 0 0 1 1153.13 322)">Light</text>
  <text style="stroke:none;fill:black;font-family:-apple-system,&quot;SF Pro Display&quot;,&quot;SF Pro Text&quot;,Helvetica,sans-serif;text-anchor:middle;" transform="matrix(1 0 0 1 1449.84 322)">Regular</text>
  <text style="stroke:none;fill:black;font-family:-apple-system,&quot;SF Pro Display&quot;,&quot;SF Pro Text&quot;,Helvetica,sans-serif;text-anchor:middle;" transform="matrix(1 0 0 1 1746.56 322)">Medium</text>
  <text style="stroke:none;fill:black;font-family:-apple-system,&quot;SF Pro Display&quot;,&quot;SF Pro Text&quot;,Helvetica,sans-serif;text-anchor:middle;" transform="matrix(1 0 0 1 2043.27 322)">Semibold</text>
  <text style="stroke:none;fill:black;font-family:-apple-system,&quot;SF Pro Display&quot;,&quot;SF Pro Text&quot;,Helvetica,sans-serif;text-anchor:middle;" transform="matrix(1 0 0 1 2339.98 322)">Bold</text>
  <text style="stroke:none;fill:black;font-family:-apple-system,&quot;SF Pro Display&quot;,&quot;SF Pro Text&quot;,Helvetica,sans-serif;text-anchor:middle;" transform="matrix(1 0 0 1 2636.69 322)">Heavy</text>
  <text style="stroke:none;fill:black;font-family:-apple-system,&quot;SF Pro Display&quot;,&quot;SF Pro Text&quot;,Helvetica,sans-serif;text-anchor:middle;" transform="matrix(1 0 0 1 2933.4 322)">Black</text>
  <line id="" style="fill:none;stroke:black;opacity:1;stroke-width:0.5;" x1="263" x2="3036" y1="1903" y2="1903"/>
  <g id="" transform="matrix(1 0 0 1 263 1933)">
   <path d="M 9.24805 0.830078 C 13.5547 0.830078 17.1387 -2.74414 17.1387 -7.05078 C 17.1387 -11.3574 13.5449 -14.9316 9.23828 -14.9316 C 4.94141 -14.9316 1.36719 -11.3574 1.36719 -7.05078 C 1.36719 -2.74414 4.95117 0.830078 9.24805 0.830078 Z M 9.24805 -0.654297 C 5.70312 -0.654297 2.87109 -3.49609 2.87109 -7.05078 C 2.87109 -10.6055 5.69336 -13.4473 9.23828 -13.4473 C 12.793 -13.4473 15.6348 -10.6055 15.6445 -7.05078 C 15.6543 -3.49609 12.8027 -0.654297 9.24805 -0.654297 Z M 9.22852 -3.62305 C 9.69727 -3.62305 9.9707 -3.93555 9.9707 -4.45312 L 9.9707 -6.31836 L 12.002 -6.31836 C 12.5 -6.31836 12.832 -6.57227 12.832 -7.04102 C 12.832 -7.51953 12.5195 -7.7832 12.002 -7.7832 L 9.9707 -7.7832 L 9.9707 -9.81445 C 9.9707 -10.332 9.69727 -10.6543 9.22852 -10.6543 C 8.75977 -10.6543 8.50586 -10.3125 8.50586 -9.81445 L 8.50586 -7.7832 L 6.49414 -7.7832 C 5.97656 -7.7832 5.64453 -7.51953 5.64453 -7.04102 C 5.64453 -6.57227 5.99609 -6.31836 6.49414 -6.31836 L 8.50586 -6.31836 L 8.50586 -4.45312 C 8.50586 -3.95508 8.75977 -3.62305 9.22852 -3.62305 Z"/>
  </g>
  <g id="" transform="matrix(1 0 0 1 281.506 1933)">
   <path d="M 11.709 2.91016 C 17.1582 2.91016 21.6699 -1.61133 21.6699 -7.05078 C 21.6699 -12.5 17.1484 -17.0117 11.6992 -17.0117 C 6.25977 -17.0117 1.74805 -12.5 1.74805 -7.05078 C 1.74805 -1.61133 6.26953 2.91016 11.709 2.91016 Z M 11.709 1.25 C 7.09961 1.25 3.41797 -2.44141 3.41797 -7.05078 C 3.41797 -11.6602 7.08984 -15.3516 11.6992 -15.3516 C 16.3086 -15.3516 20 -11.6602 20.0098 -7.05078 C 20.0195 -2.44141 16.3184 1.25 11.709 1.25 Z M 11.6797 -2.66602 C 12.207 -2.66602 12.5098 -3.01758 12.5098 -3.59375 L 12.5098 -6.23047 L 15.3223 -6.23047 C 15.8691 -6.23047 16.25 -6.51367 16.25 -7.03125 C 16.25 -7.55859 15.8887 -7.86133 15.3223 -7.86133 L 12.5098 -7.86133 L 12.5098 -10.6836 C 12.5098 -11.25 12.207 -11.6113 11.6797 -11.6113 C 11.1621 -11.6113 10.8789 -11.2305 10.8789 -10.6836 L 10.8789 -7.86133 L 8.07617 -7.86133 C 7.50977 -7.86133 7.13867 -7.55859 7.13867 -7.03125 C 7.13867 -6.51367 7.5293 -6.23047 8.07617 -6.23047 L 10.8789 -6.23047 L 10.8789 -3.59375 C 10.8789 -3.03711 11.1621 -2.66602 11.6797 -2.66602 Z"/>
  </g>
  <g id="" transform="matrix(1 0 0 1 304.924 1933)">
   <path d="M 14.9707 5.66406 C 21.9336 5.66406 27.6953 -0.0976562 27.6953 -7.05078 C 27.6953 -14.0137 21.9238 -19.7754 14.9609 -19.7754 C 8.00781 -19.7754 2.25586 -14.0137 2.25586 -7.05078 C 2.25586 -0.0976562 8.01758 5.66406 14.9707 5.66406 Z M 14.9707 3.84766 C 8.93555 3.84766 4.08203 -1.01562 4.08203 -7.05078 C 4.08203 -13.0957 8.92578 -17.9492 14.9609 -17.9492 C 21.0059 -17.9492 25.8594 -13.0957 25.8691 -7.05078 C 25.8789 -1.01562 21.0156 3.84766 14.9707 3.84766 Z M 14.9414 -1.38672 C 15.5176 -1.38672 15.8594 -1.77734 15.8594 -2.38281 L 15.8594 -6.13281 L 19.7754 -6.13281 C 20.3711 -6.13281 20.7812 -6.46484 20.7812 -7.02148 C 20.7812 -7.59766 20.3906 -7.93945 19.7754 -7.93945 L 15.8594 -7.93945 L 15.8594 -11.8652 C 15.8594 -12.4805 15.5176 -12.8711 14.9414 -12.8711 C 14.375 -12.8711 14.0527 -12.4609 14.0527 -11.8652 L 14.0527 -7.93945 L 10.1465 -7.93945 C 9.53125 -7.93945 9.13086 -7.59766 9.13086 -7.02148 C 9.13086 -6.46484 9.55078 -6.13281 10.1465 -6.13281 L 14.0527 -6.13281 L 14.0527 -2.38281 C 14.0527 -1.79688 14.375 -1.38672 14.9414 -1.38672 Z"/>
  </g>
  <text style="stroke:none;fill:black;font-family:-apple-system,&quot;SF Pro Display&quot;,&quot;SF Pro Text&quot;,Helvetica,sans-serif;font-weight:bold;" transform="matrix(1 0 0 1 263 1953)">Design Variations</text>
  <text style="stroke:none;fill:black;font-family:-apple-system,&quot;SF Pro Display&quot;,&quot;SF Pro Text&quot;,Helvetica,sans-serif;" transform="matrix(1 0 0 1 263 1971)">Symbols are supported in up to nine weights and three scales.</text>
  <text style="stroke:none;fill:black;font-family:-apple-system,&quot;SF Pro Display&quot;,&quot;SF Pro Text&quot;,Helvetica,sans-serif;" transform="matrix(1 0 0 1 263 1989)">For optimal layout with text and other symbols, vertically align</text>
  <text style="stroke:none;fill:black;font-family:-apple-system,&quot;SF Pro Display&quot;,&quot;SF Pro Text&quot;,Helvetica,sans-serif;" transform="matrix(1 0 0 1 263 2007)">symbols with the adjacent text.</text>
  <line id="" style="fill:none;stroke:#00AEEF;stroke-width:0.5;opacity:1.0;" x1="776" x2="776" y1="1919" y2="1933"/>
  <g id="" transform="matrix(1 0 0 1 776 1933)">
   <path d="M 3.31055 0.126953 C 3.82812 0.126953 4.08203 -0.0683594 4.26758 -0.605469 L 5.52734 -4.0625 L 11.2891 -4.0625 L 12.5488 -0.605469 C 12.7344 -0.0683594 12.9883 0.126953 13.4961 0.126953 C 14.0137 0.126953 14.3457 -0.185547 14.3457 -0.673828 C 14.3457 -0.839844 14.3164 -0.986328 14.2383 -1.20117 L 9.6582 -13.3887 C 9.43359 -13.9941 9.0332 -14.2871 8.4082 -14.2871 C 7.80273 -14.2871 7.39258 -13.9941 7.17773 -13.3984 L 2.59766 -1.19141 C 2.51953 -0.976562 2.49023 -0.830078 2.49023 -0.664062 C 2.49023 -0.175781 2.80273 0.126953 3.31055 0.126953 Z M 6.00586 -5.53711 L 8.37891 -12.1094 L 8.42773 -12.1094 L 10.8008 -5.53711 Z"/>
  </g>
  <line id="" style="fill:none;stroke:#00AEEF;stroke-width:0.5;opacity:1.0;" x1="792.836" x2="792.836" y1="1919" y2="1933"/>
  <text style="stroke:none;fill:black;font-family:-apple-system,&quot;SF Pro Display&quot;,&quot;SF Pro Text&quot;,Helvetica,sans-serif;font-weight:bold;" transform="matrix(1 0 0 1 776 1953)">Margins</text>
  <text style="stroke:none;fill:black;font-family:-apple-system,&quot;SF Pro Display&quot;,&quot;SF Pro Text&quot;,Helvetica,sans-serif;" transform="matrix(1 0 0 1 776 1971)">Leading and trailing margins on the left and right side of each symbol</text>
  <text style="stroke:none;fill:black;font-family:-apple-system,&quot;SF Pro Display&quot;,&quot;SF Pro Text&quot;,Helvetica,sans-serif;" transform="matrix(1 0 0 1 776 1989)">can be adjusted by modifying the x-location of the margin guidelines.</text>
  <text style="stroke:none;fill:black;font-family:-apple-system,&quot;SF Pro Display&quot;,&quot;SF Pro Text&quot;,Helvetica,sans-serif;" transform="matrix(1 0 0 1 776 2007)">Modifications are automatically applied proportionally to all</text>
  <text style="stroke:none;fill:black;font-family:-apple-system,&quot;SF Pro Display&quot;,&quot;SF Pro Text&quot;,Helvetica,sans-serif;" transform="matrix(1 0 0 1 776 2025)">scales and weights.</text>
  <g id="" transform="matrix(1 0 0 1 1289 1933)">
   <path d="M 2.8418 1.86523 L 4.54102 3.57422 C 5.40039 4.44336 6.38672 4.38477 7.31445 3.35938 L 17.4902 -7.85156 C 17.7539 -7.76367 18.0273 -7.7832 18.3398 -7.8418 L 19.4043 -8.03711 L 20.0684 -7.36328 L 20.0293 -6.80664 C 19.9902 -6.30859 20.1172 -5.92773 20.6055 -5.44922 L 21.3672 -4.70703 C 21.8457 -4.22852 22.4609 -4.19922 22.9297 -4.66797 L 25.8398 -7.58789 C 26.3086 -8.05664 26.2891 -8.65234 25.8105 -9.13086 L 25.0391 -9.89258 C 24.5605 -10.3711 24.1895 -10.5273 23.7109 -10.4883 L 23.1348 -10.4395 L 22.4902 -11.0742 L 22.7344 -12.1973 C 22.8613 -12.7637 22.7051 -13.2031 22.1191 -13.7891 L 19.9219 -15.9766 C 16.582 -19.2969 12.1484 -19.2188 9.25781 -16.3281 C 8.83789 -15.918 8.80859 -15.3418 9.04297 -14.9512 C 9.27734 -14.5898 9.73633 -14.3555 10.3809 -14.5215 C 11.8457 -14.8633 13.3691 -14.9219 14.7949 -13.9844 L 14.209 -12.5293 C 14.0137 -12.0508 13.9844 -11.6504 14.1113 -11.2891 L 3.04688 -0.898438 C 2.06055 0.0195312 1.98242 0.996094 2.8418 1.86523 Z M 10.752 -15.957 C 13.1836 -17.7344 16.4746 -17.4316 18.7012 -15.2051 L 21.1328 -12.793 C 21.3672 -12.5586 21.4062 -12.373 21.3379 -12.0312 L 21.0156 -10.5469 L 22.5195 -9.0625 L 23.5059 -9.12109 C 23.7598 -9.13086 23.8379 -9.11133 24.0332 -8.91602 L 24.6094 -8.33984 L 22.168 -5.89844 L 21.5918 -6.47461 C 21.3965 -6.66992 21.3672 -6.74805 21.377 -7.01172 L 21.4453 -7.98828 L 19.9512 -9.47266 L 18.4277 -9.21875 C 18.1055 -9.15039 17.959 -9.17969 17.7148 -9.41406 L 15.7129 -11.416 C 15.459 -11.6504 15.4297 -11.8164 15.5859 -12.1875 L 16.4648 -14.2773 C 14.9023 -15.7324 12.8711 -16.3574 10.8398 -15.7617 C 10.6836 -15.7227 10.625 -15.8496 10.752 -15.957 Z M 5.27344 2.30469 L 4.10156 1.14258 C 3.63281 0.683594 3.74023 0.341797 4.14062 -0.0195312 L 14.9512 -10.1953 L 16.416 -8.71094 L 6.42578 2.27539 C 6.07422 2.67578 5.74219 2.77344 5.27344 2.30469 Z"/>
  </g>
  <text style="stroke:none;fill:black;font-family:-apple-system,&quot;SF Pro Display&quot;,&quot;SF Pro Text&quot;,Helvetica,sans-serif;font-weight:bold;" transform="matrix(1 0 0 1 1289 1953)">Exporting</text>
  <text style="stroke:none;fill:black;font-family:-apple-system,&quot;SF Pro Display&quot;,&quot;SF Pro Text&quot;,Helvetica,sans-serif;" transform="matrix(1 0 0 1 1289 1971)">Symbols should be outlined when exporting to ensure the</text>
  <text style="stroke:none;fill:black;font-family:-apple-system,&quot;SF Pro Display&quot;,&quot;SF Pro Text&quot;,Helvetica,sans-serif;" transform="matrix(1 0 0 1 1289 1989)">design is preserved when submitting to Xcode.</text>
  <text id="template-version" style="stroke:none;fill:black;font-family:-apple-system,&quot;SF Pro Display&quot;,&quot;SF Pro Text&quot;,Helvetica,sans-serif;text-anchor:end;" transform="matrix(1 0 0 1 3036 1933)">Template v.2.0</text>
  <text style="stroke:none;fill:black;font-family:-apple-system,&quot;SF Pro Display&quot;,&quot;SF Pro Text&quot;,Helvetica,sans-serif;text-anchor:end;" transform="matrix(1 0 0 1 3036 1951)">Requires Xcode 12 or greater</text>
  <text style="stroke:none;fill:black;font-family:-apple-system,&quot;SF Pro Display&quot;,&quot;SF Pro Text&quot;,Helvetica,sans-serif;text-anchor:end;" transform="matrix(1 0 0 1 3036 1969)">Generated from clock.arrow.circlepath</text>
  <text style="stroke:none;fill:black;font-family:-apple-system,&quot;SF Pro Display&quot;,&quot;SF Pro Text&quot;,Helvetica,sans-serif;text-anchor:end;" transform="matrix(1 0 0 1 3036 1987)">Typeset at 100 points</text>
  <text style="stroke:none;fill:black;font-family:-apple-system,&quot;SF Pro Display&quot;,&quot;SF Pro Text&quot;,Helvetica,sans-serif;" transform="matrix(1 0 0 1 263 726)">Small</text>
  <text style="stroke:none;fill:black;font-family:-apple-system,&quot;SF Pro Display&quot;,&quot;SF Pro Text&quot;,Helvetica,sans-serif;" transform="matrix(1 0 0 1 263 1156)">Medium</text>
  <text style="stroke:none;fill:black;font-family:-apple-system,&quot;SF Pro Display&quot;,&quot;SF Pro Text&quot;,Helvetica,sans-serif;" transform="matrix(1 0 0 1 263 1586)">Large</text>
 </g>
 <g id="Guides">
  <g id="H-reference" style="fill:#27AAE1;stroke:none;" transform="matrix(1 0 0 1 339 696)">
   <path d="M 0.976562 0 L 3.66211 0 L 12.9883 -24.4629 L 45.7031 -24.4629 L 55.0781 0 L 57.7148 0 L 30.6152 -70.459 L 28.125 -70.459 Z M 29.2969 -67.1387 L 29.3945 -67.1387 L 44.873 -26.709 L 13.8672 -26.709 Z"/>
  </g>
  <line id="Baseline-S" style="fill:none;stroke:#27AAE1;opacity:1;stroke-width:0.5;" x1="263" x2="3036" y1="696" y2="696"/>
  <line id="Capline-S" style="fill:none;stroke:#27AAE1;opacity:1;stroke-width:0.5;" x1="263" x2="3036" y1="625.541" y2="625.541"/>
  <g id="H-reference" style="fill:#27AAE1;stroke:none;" transform="matrix(1 0 0 1 339 1126)">
   <path d="M 0.976562 0 L 3.66211 0 L 12.9883 -24.4629 L 45.7031 -24.4629 L 55.0781 0 L 57.7148 0 L 30.6152 -70.459 L 28.125 -70.459 Z M 29.2969 -67.1387 L 29.3945 -67.1387 L 44.873 -26.709 L 13.8672 -26.709 Z"/>
  </g>
  <line id="Baseline-M" style="fill:none;stroke:#27AAE1;opacity:1;stroke-width:0.5;" x1="263" x2="3036" y1="1126" y2="1126"/>
  <line id="Capline-M" style="fill:none;stroke:#27AAE1;opacity:1;stroke-width:0.5;" x1="263" x2="3036" y1="1055.54" y2="1055.54"/>
  <g id="H-reference" style="fill:#27AAE1;stroke:none;" transform="matrix(1 0 0 1 339 1556)">
   <path d="M 0.976562 0 L 3.66211 0 L 12.9883 -24.4629 L 45.7031 -24.4629 L 55.0781 0 L 57.7148 0 L 30.6152 -70.459 L 28.125 -70.459 Z M 29.2969 -67.1387 L 29.3945 -67.1387 L 44.873 -26.709 L 13.8672 -26.709 Z"/>
  </g>
  <line id="Baseline-L" style="fill:none;stroke:#27AAE1;opacity:1;stroke-width:0.5;" x1="263" x2="3036" y1="1556" y2="1556"/>
  <line id="Capline-L" style="fill:none;stroke:#27AAE1;opacity:1;stroke-width:0.5;" x1="263" x2="3036" y1="1485.54" y2="1485.54"/>
  <line id="left-margin" style="fill:none;stroke:#00AEEF;stroke-width:0.5;opacity:1.0;" x1="1386.56" x2="1386.56" y1="1030.79" y2="1150.12"/>
  <line id="right-margin" style="fill:none;stroke:#00AEEF;stroke-width:0.5;opacity:1.0;" x1="1513.13" x2="1513.13" y1="1030.79" y2="1150.12"/>
 </g>
 <g id="Symbols">
  <g id="Black-L" transform="matrix(1 0 0 1 2847.51 1556)">
   <path d="M 17.5293 -50.3906 C 11.1328 -50.3906 9.61914 -44.4824 12.9883 -40.0879 L 32.2754 -14.9902 C 34.6191 -11.9629 38.916 -11.9629 41.2109 -14.9902 L 60.4492 -40.0879 C 63.7695 -44.4336 62.3047 -50.3906 56.0059 -50.3906 L 47.3145 -50.3906 C 53.6621 -69.2871 71.4355 -82.8125 92.4805 -82.8125 C 118.848 -82.8125 140.137 -61.5723 140.137 -35.2051 C 140.137 -8.83789 118.848 12.4512 92.4805 12.4023 C 79.1992 12.4023 67.8711 7.22656 58.7891 -1.75781 C 54.248 -6.05469 48.0469 -7.42188 43.4082 -3.17383 C 39.2578 0.683594 39.209 6.78711 44.043 12.2559 C 54.6875 24.5605 74.8047 32.8613 92.4805 32.8613 C 129.932 32.8613 160.547 2.19727 160.547 -35.2051 C 160.547 -72.6074 129.932 -103.271 92.4805 -103.271 C 60.2539 -103.271 33.1055 -80.6152 26.1719 -50.3906 Z M 90.2832 -70.5566 C 86.2305 -70.5566 83.0078 -67.334 83.0078 -63.3301 L 83.0078 -32.1289 C 83.0078 -30.3711 83.6426 -28.5645 84.9121 -26.9043 L 98.2422 -9.32617 C 101.123 -5.51758 105.518 -4.88281 108.984 -7.37305 C 112.305 -9.81445 112.598 -14.502 110.107 -17.7734 L 97.5098 -34.5703 L 97.5098 -63.3301 C 97.5098 -67.334 94.2871 -70.5566 90.2832 -70.5566 Z"/>
  </g>
  <g id="Heavy-L" transform="matrix(1 0 0 1 2551.97 1556)">
   <path d="M 16.9922 -49.6094 C 11.1328 -49.6094 9.7168 -44.4336 12.8418 -40.332 L 30.8594 -16.5039 C 33.1055 -13.5742 37.0117 -13.5742 39.209 -16.5039 L 57.1777 -40.332 C 60.2051 -44.3848 58.8379 -49.6094 53.0762 -49.6094 L 44.043 -49.6094 C 50.1953 -69.8242 68.8965 -84.4238 91.2109 -84.4238 C 118.457 -84.4238 140.43 -62.5 140.43 -35.2051 C 140.43 -7.95898 118.457 14.0625 91.2109 14.0137 C 76.6113 14.0137 64.0625 7.8125 54.834 -2.44141 C 50.9766 -6.20117 45.7031 -7.42188 41.6016 -3.85742 C 37.8906 -0.585938 37.7441 4.73633 41.8457 9.47266 C 52.7832 22.7539 72.6074 31.7871 91.2109 31.7871 C 127.979 31.7871 158.203 1.5625 158.203 -35.2051 C 158.203 -72.0215 127.979 -102.246 91.2109 -102.246 C 59.2773 -102.246 32.373 -79.5898 25.7324 -49.6094 Z M 88.916 -70.8496 C 85.2539 -70.8496 82.3242 -67.9199 82.3242 -64.3066 L 82.3242 -32.2266 C 82.3242 -30.5664 82.959 -28.9551 84.1309 -27.3926 L 98.0469 -9.0332 C 100.635 -5.61523 104.59 -4.98047 107.715 -7.27539 C 110.742 -9.47266 111.035 -13.623 108.74 -16.6504 L 95.459 -34.4238 L 95.459 -64.3066 C 95.459 -67.9199 92.5293 -70.8496 88.916 -70.8496 Z"/>
  </g>
  <g id="Bold-L" transform="matrix(1 0 0 1 2256.58 1556)">
   <path d="M 16.3574 -48.7305 C 11.1816 -48.7305 9.86328 -44.3848 12.6953 -40.625 L 29.2969 -18.2129 C 31.3965 -15.3809 34.8633 -15.3809 36.9141 -18.2129 L 53.4668 -40.625 C 56.25 -44.3848 54.9316 -48.7305 49.8047 -48.7305 L 40.4297 -48.7305 C 46.3379 -70.459 66.1133 -86.2793 89.7461 -86.2793 C 118.018 -86.2793 140.771 -63.5254 140.771 -35.2539 C 140.771 -6.98242 118.018 15.8691 89.7461 15.8203 C 73.7305 15.7715 59.8633 8.49609 50.4395 -3.125 C 47.3633 -6.34766 43.0176 -7.42188 39.5508 -4.58984 C 36.4258 -2.05078 36.084 2.49023 39.4043 6.39648 C 50.6348 20.8008 70.1172 30.5664 89.7461 30.5664 C 125.83 30.5664 155.566 0.878906 155.566 -35.2539 C 155.566 -71.3379 125.83 -101.074 89.7461 -101.074 C 58.2031 -101.074 31.5918 -78.4668 25.293 -48.7305 Z M 87.4023 -71.0938 C 84.1797 -71.0938 81.5918 -68.5547 81.5918 -65.3809 L 81.5918 -32.373 C 81.5918 -30.8105 82.1289 -29.3457 83.252 -27.8809 L 97.8027 -8.69141 C 100.098 -5.66406 103.564 -5.17578 106.348 -7.17773 C 109.033 -9.08203 109.277 -12.6953 107.227 -15.4297 L 93.1641 -34.2285 L 93.1641 -65.3809 C 93.1641 -68.5547 90.5762 -71.0938 87.4023 -71.0938 Z"/>
  </g>
  <g id="Semibold-L" transform="matrix(1 0 0 1 1960.8 1556)">
   <path d="M 15.9668 -48.1445 C 11.1816 -48.1445 9.96094 -44.3848 12.5977 -40.8203 L 28.1738 -19.3848 C 30.1758 -16.6016 33.3984 -16.6504 35.3516 -19.3848 L 50.9277 -40.8691 C 53.4668 -44.3359 52.2949 -48.1445 47.5586 -48.1445 L 37.9883 -48.1445 C 43.7012 -70.8496 64.1602 -87.5 88.7207 -87.5 C 117.676 -87.5 141.016 -64.209 141.016 -35.2539 C 141.016 -6.25 117.676 17.1387 88.7207 17.041 C 71.7285 17.041 56.9824 8.98438 47.4121 -3.61328 C 44.873 -6.49414 41.1621 -7.37305 38.1836 -5.12695 C 35.4004 -3.02734 34.9609 0.927734 37.6953 4.29688 C 49.1699 19.4336 68.4082 29.7363 88.7207 29.7363 C 124.365 29.7363 153.711 0.390625 153.711 -35.2539 C 153.711 -70.8984 124.365 -100.244 88.7207 -100.244 C 57.4707 -100.244 31.0547 -77.6855 25 -48.1445 Z M 86.377 -71.3379 C 83.4473 -71.3379 81.1035 -68.9941 81.1035 -66.1133 L 81.1035 -32.4707 C 81.1035 -30.957 81.5918 -29.6387 82.6172 -28.2715 L 97.6562 -8.49609 C 99.7559 -5.71289 102.832 -5.27344 105.42 -7.08008 C 107.861 -8.83789 108.057 -12.0605 106.152 -14.5508 L 91.5527 -34.082 L 91.5527 -66.1133 C 91.5527 -68.9941 89.209 -71.3379 86.377 -71.3379 Z"/>
  </g>
  <g id="Medium-L" transform="matrix(1 0 0 1 1664.77 1556)">
   <path d="M 15.625 -47.6562 C 11.2305 -47.6562 10.0098 -44.3359 12.5 -40.9668 L 27.3438 -20.2637 C 29.2969 -17.5293 32.2754 -17.5781 34.1797 -20.2637 L 49.0234 -41.0156 C 51.416 -44.3359 50.2441 -47.6562 45.8984 -47.6562 L 36.1328 -47.6562 C 41.6504 -71.1426 62.6953 -88.4766 87.9395 -88.4766 C 117.48 -88.4766 141.211 -64.7461 141.211 -35.2539 C 141.211 -5.76172 117.48 18.0664 87.9395 18.0176 C 70.2148 17.9688 54.7852 9.32617 45.1172 -4.00391 C 42.9688 -6.54297 39.7949 -7.37305 37.1094 -5.51758 C 34.5703 -3.75977 34.082 -0.244141 36.4258 2.68555 C 48.0469 18.4082 67.1387 29.1504 87.9395 29.1504 C 123.242 29.1504 152.344 0 152.344 -35.2539 C 152.344 -70.5078 123.242 -99.6582 87.9395 -99.6582 C 56.8848 -99.6582 30.6152 -77.0996 24.7559 -47.6562 Z M 85.5469 -71.4844 C 82.8613 -71.4844 80.7129 -69.3359 80.7129 -66.6992 L 80.7129 -32.5195 C 80.7129 -31.1035 81.2012 -29.834 82.1777 -28.5156 L 97.5098 -8.34961 C 99.4629 -5.76172 102.344 -5.37109 104.688 -7.03125 C 106.934 -8.64258 107.129 -11.5234 105.371 -13.916 L 90.332 -33.9844 L 90.332 -66.6992 C 90.332 -69.3359 88.1836 -71.4844 85.5469 -71.4844 Z"/>
  </g>
  <g id="Regular-L" transform="matrix(1 0 0 1 1368.96 1556)">
   <path d="M 15.2344 -47.0703 C 11.2305 -47.0703 10.1074 -44.3359 12.4023 -41.1621 L 26.2695 -21.4355 C 28.125 -18.75 30.8105 -18.7988 32.6172 -21.4355 L 46.4844 -41.2109 C 48.6816 -44.3359 47.6074 -47.0703 43.6523 -47.0703 L 33.7402 -47.0703 C 39.0625 -71.5332 60.791 -89.6973 86.9629 -89.6973 C 117.139 -89.6973 141.455 -65.4785 141.455 -35.2539 C 141.455 -5.07812 117.139 19.3359 86.9629 19.2383 C 68.2617 19.1895 51.9043 9.81445 42.1387 -4.49219 C 40.5273 -6.68945 37.9395 -7.37305 35.7422 -6.00586 C 33.5938 -4.73633 32.959 -1.80664 34.7656 0.585938 C 46.6309 17.041 65.4297 28.3203 86.9629 28.3203 C 121.777 28.3203 150.537 -0.488281 150.537 -35.2539 C 150.537 -70.0684 121.777 -98.877 86.9629 -98.877 C 56.1523 -98.877 30.0781 -76.3672 24.4629 -47.0703 Z M 84.5215 -71.6797 C 82.1289 -71.6797 80.2246 -69.7754 80.2246 -67.4316 L 80.2246 -32.6172 C 80.2246 -31.25 80.6641 -30.127 81.5918 -28.9062 L 97.3633 -8.10547 C 99.0723 -5.81055 101.611 -5.46875 103.76 -6.98242 C 105.762 -8.39844 105.957 -10.8887 104.346 -13.0371 L 88.7695 -33.8867 L 88.7695 -67.4316 C 88.7695 -69.7754 86.8652 -71.6797 84.5215 -71.6797 Z"/>
  </g>
  <g id="Light-L" transform="matrix(1 0 0 1 1073.23 1556)">
   <path d="M 14.502 -46.582 C 11.2793 -46.582 10.3027 -44.2871 12.207 -41.6016 L 25.7812 -22.2656 C 27.3438 -20.0195 29.5898 -20.0195 31.1523 -22.2656 L 44.6777 -41.6504 C 46.582 -44.2871 45.6055 -46.582 42.3828 -46.582 L 31.2988 -46.582 C 36.4746 -71.9727 58.9355 -91.0156 85.9375 -91.0156 C 116.797 -91.0156 141.699 -66.1133 141.699 -35.2539 C 141.699 -4.44336 116.797 20.5566 85.9375 20.5078 C 66.2109 20.459 49.0723 10.1562 39.0625 -5.27344 C 37.8906 -6.93359 35.9375 -7.4707 34.2285 -6.44531 C 32.6172 -5.51758 32.0801 -3.32031 33.4473 -1.46484 C 45.1172 15.5273 64.0137 27.3926 85.9375 27.3926 C 120.264 27.3926 148.584 -0.927734 148.584 -35.2539 C 148.584 -69.6289 120.264 -97.9492 85.9375 -97.9492 C 55.4199 -97.9492 29.6875 -75.6348 24.3164 -46.582 Z M 83.4473 -70.9473 C 81.5918 -70.9473 80.127 -69.5312 80.127 -67.6758 L 80.127 -33.4473 C 80.127 -32.1289 80.5176 -31.25 81.25 -30.2246 L 97.3145 -9.0332 C 98.6328 -7.32422 100.635 -7.12891 102.197 -8.25195 C 103.711 -9.375 103.857 -11.2305 102.637 -12.8418 L 86.6699 -34.0332 L 86.6699 -67.6758 C 86.6699 -69.5312 85.2051 -70.9473 83.4473 -70.9473 Z"/>
  </g>
  <g id="Thin-L" transform="matrix(1 0 0 1 777.809 1556)">
   <path d="M 13.623 -45.8984 C 11.3281 -45.8984 10.498 -44.2871 11.9629 -42.1875 L 25.0977 -23.3887 C 26.3184 -21.6309 27.9297 -21.6309 29.1504 -23.3887 L 42.2852 -42.1875 C 43.7988 -44.2871 42.9199 -45.8984 40.6738 -45.8984 L 28.0762 -45.8984 C 33.1055 -72.5098 56.4941 -92.7246 84.5703 -92.7246 C 116.26 -92.7246 142.041 -66.9922 142.041 -35.2539 C 142.041 -3.56445 116.26 22.2168 84.5703 22.168 C 63.4766 22.168 45.3125 10.5957 35.0098 -6.29883 C 34.375 -7.27539 33.2031 -7.56836 32.2266 -7.03125 C 31.2988 -6.54297 30.957 -5.32227 31.6895 -4.24805 C 43.1641 13.5254 62.1094 26.1719 84.5703 26.1719 C 118.359 26.1719 145.996 -1.51367 145.996 -35.2539 C 145.996 -69.043 118.359 -96.7285 84.5703 -96.7285 C 54.3945 -96.7285 29.1504 -74.6582 24.0723 -45.8984 Z M 82.0312 -69.9707 C 80.8594 -69.9707 79.9805 -69.1406 79.9805 -68.0664 L 79.9805 -34.5215 C 79.9805 -33.3496 80.3223 -32.7148 80.8594 -31.9824 L 97.3145 -10.2539 C 98.0469 -9.32617 99.2676 -9.27734 100.098 -9.96094 C 101.025 -10.6934 101.123 -11.6699 100.391 -12.5977 L 83.8867 -34.1797 L 83.8867 -68.0664 C 83.8867 -69.1406 83.0078 -69.9707 82.0312 -69.9707 Z"/>
  </g>
  <g id="Ultralight-L" transform="matrix(1 0 0 1 481.757 1556)">
   <path d="M 13.1348 -45.5566 C 11.377 -45.5566 10.5957 -44.2871 11.8652 -42.4805 L 24.7559 -23.9746 C 25.8301 -22.5098 27.0996 -22.4609 28.1738 -23.9746 L 41.0645 -42.4805 C 42.334 -44.2871 41.5527 -45.5566 39.7949 -45.5566 L 26.4648 -45.5566 C 31.3477 -72.8027 55.2246 -93.6035 83.8867 -93.6035 C 116.016 -93.6035 142.188 -67.4316 142.188 -35.2539 C 142.188 -3.125 116.016 23.0469 83.8867 23.0469 C 62.0605 23.0469 43.4082 10.8398 32.959 -6.83594 C 32.6172 -7.4707 31.8359 -7.61719 31.2012 -7.32422 C 30.6641 -7.03125 30.3711 -6.34766 30.7617 -5.61523 C 42.1387 12.5 61.1328 25.5371 83.8867 25.5371 C 117.334 25.5371 144.678 -1.80664 144.678 -35.2539 C 144.678 -68.75 117.334 -96.0938 83.8867 -96.0938 C 53.9062 -96.0938 28.8574 -74.1699 23.9258 -45.5566 Z M 81.2988 -69.4336 C 80.4688 -69.4336 79.9316 -68.9453 79.9316 -68.2617 L 79.9316 -35.0586 C 79.9316 -33.9355 80.2246 -33.4473 80.6641 -32.9102 L 97.3145 -10.8887 C 97.7539 -10.3516 98.584 -10.4004 99.0723 -10.8398 C 99.6094 -11.377 99.707 -11.9141 99.2676 -12.4512 L 82.4707 -34.1797 L 82.4707 -68.2617 C 82.4707 -68.9453 81.8848 -69.4336 81.2988 -69.4336 Z"/>
  </g>
  <g id="Black-M" transform="matrix(1 0 0 1 2865.77 1126)">
   <path d="M 13.916 -47.8027 C 8.59375 -47.8027 7.32422 -42.4316 10.1562 -38.8672 L 26.6602 -17.9199 C 28.4668 -15.6738 32.0801 -15.6738 33.8867 -17.9199 L 50.3418 -38.8672 C 53.0762 -42.3828 51.9043 -47.8027 46.6309 -47.8027 L 39.7949 -47.8027 C 44.873 -61.1328 57.7148 -70.6055 72.9004 -70.6055 C 92.4316 -70.6055 108.301 -54.7363 108.301 -35.2051 C 108.301 -15.625 92.4316 0.195312 72.9004 0.195312 C 63.7695 0.195312 56.1035 -2.97852 49.2188 -8.83789 C 44.9707 -12.5488 39.3555 -13.7695 35.2539 -9.7168 C 31.6895 -6.10352 31.8848 -0.78125 36.377 4.15039 C 44.1406 12.6953 60.2051 18.457 72.9004 18.457 C 102.49 18.457 126.562 -5.61523 126.562 -35.2051 C 126.562 -64.7949 102.49 -88.8672 72.9004 -88.8672 C 47.6074 -88.8672 26.3672 -71.3379 20.7031 -47.8027 Z M 71.1914 -61.8652 C 67.8223 -61.8652 65.1367 -59.1797 65.1367 -55.8594 L 65.1367 -33.1055 C 65.1367 -31.6406 65.6738 -30.1758 66.6992 -28.8574 L 76.416 -16.0156 C 78.7598 -12.9395 82.4219 -12.4023 85.2539 -14.4531 C 87.9883 -16.5039 88.2812 -20.459 86.2793 -23.0957 L 77.1973 -35.0586 L 77.1973 -55.8594 C 77.1973 -59.1797 74.5117 -61.8652 71.1914 -61.8652 Z"/>
  </g>
  <g id="Heavy-M" transform="matrix(1 0 0 1 2570.09 1126)">
   <path d="M 13.5254 -47.0703 C 8.64258 -47.0703 7.42188 -42.3828 10.0586 -39.0137 L 25.2441 -19.3848 C 27.002 -17.1387 30.3223 -17.1387 32.0312 -19.3848 L 47.2168 -39.0625 C 49.7559 -42.334 48.6328 -47.0703 43.7988 -47.0703 L 36.8164 -47.0703 C 41.748 -61.6211 55.4688 -72.0215 71.7285 -72.0215 C 92.0898 -72.0215 108.594 -55.6152 108.594 -35.2051 C 108.594 -14.8438 92.0898 1.66016 71.7285 1.61133 C 61.4746 1.61133 52.7832 -2.39258 45.7031 -9.375 C 42.1387 -12.6465 37.3047 -13.7207 33.6914 -10.3516 C 30.4688 -7.27539 30.5176 -2.58789 34.3262 1.70898 C 42.4316 11.1328 58.1543 17.5293 71.7285 17.5293 C 100.781 17.5293 124.512 -6.20117 124.512 -35.2051 C 124.512 -64.2578 100.781 -87.9883 71.7285 -87.9883 C 46.7285 -87.9883 25.7324 -70.459 20.3125 -47.0703 Z M 70.0195 -62.3535 C 66.8945 -62.3535 64.4531 -59.8633 64.4531 -56.8359 L 64.4531 -33.0078 C 64.4531 -31.6406 64.9414 -30.2734 65.918 -29.0039 L 76.2207 -15.4785 C 78.3691 -12.5977 81.6895 -12.1094 84.3262 -14.0137 C 86.8652 -15.8691 87.1094 -19.4824 85.2051 -21.9238 L 75.5371 -34.8145 L 75.5371 -56.8359 C 75.5371 -59.8633 73.0469 -62.3535 70.0195 -62.3535 Z"/>
  </g>
  <g id="Bold-M" transform="matrix(1 0 0 1 2274.52 1126)">
   <path d="M 13.0859 -46.2402 C 8.64258 -46.2402 7.56836 -42.3828 9.96094 -39.209 L 23.6816 -20.9961 C 25.3906 -18.75 28.3203 -18.75 30.0293 -20.9961 L 43.7012 -39.2578 C 46.0449 -42.334 44.9707 -46.2402 40.625 -46.2402 L 33.5938 -46.2402 C 38.2812 -62.1582 52.9785 -73.6816 70.459 -73.6816 C 91.748 -73.6816 108.887 -56.543 108.887 -35.2051 C 108.887 -13.916 91.748 3.27148 70.459 3.22266 C 58.9355 3.22266 49.0234 -1.75781 41.7969 -9.91211 C 38.9648 -12.7441 35.0098 -13.6719 31.9336 -11.0352 C 29.1504 -8.64258 29.0039 -4.58984 32.0312 -1.07422 C 40.5762 9.42383 55.8594 16.5039 70.459 16.5039 C 98.877 16.5039 122.168 -6.83594 122.168 -35.2051 C 122.168 -63.623 98.877 -86.9629 70.459 -86.9629 C 45.8008 -86.9629 25 -69.4336 19.873 -46.2402 Z M 68.7012 -62.8906 C 65.918 -62.8906 63.6719 -60.6934 63.6719 -57.959 L 63.6719 -32.9102 C 63.6719 -31.6406 64.1602 -30.4199 65.0391 -29.1992 L 75.9766 -14.8438 C 77.9297 -12.2559 80.9082 -11.8164 83.3008 -13.5254 C 85.5957 -15.1855 85.791 -18.3105 84.082 -20.6055 L 73.6328 -34.5703 L 73.6328 -57.959 C 73.6328 -60.6934 71.4355 -62.8906 68.7012 -62.8906 Z"/>
  </g>
  <g id="Semibold-M" transform="matrix(1 0 0 1 1978.59 1126)">
   <path d="M 12.7441 -45.6543 C 8.69141 -45.6543 7.66602 -42.334 9.86328 -39.3555 L 22.5586 -22.1191 C 24.2676 -19.8242 27.002 -19.873 28.6133 -22.1191 L 41.3086 -39.4043 C 43.457 -42.334 42.4805 -45.6543 38.4277 -45.6543 L 31.3477 -45.6543 C 35.8887 -62.5 51.2207 -74.7559 69.5801 -74.7559 C 91.5039 -74.7559 109.131 -57.1777 109.131 -35.2539 C 109.131 -13.3301 91.5039 4.39453 69.5801 4.3457 C 57.1777 4.29688 46.3867 -1.31836 39.1113 -10.3027 C 36.7676 -12.8418 33.3984 -13.623 30.7129 -11.5234 C 28.2227 -9.57031 27.9297 -6.00586 30.4688 -2.97852 C 39.2578 8.20312 54.2969 15.8203 69.5801 15.8203 C 97.5586 15.8203 120.605 -7.27539 120.605 -35.2539 C 120.605 -63.2324 97.5586 -86.2793 69.5801 -86.2793 C 45.1172 -86.2793 24.4629 -68.75 19.6289 -45.6543 Z M 67.7734 -63.2324 C 65.2344 -63.2324 63.1836 -61.2305 63.1836 -58.6914 L 63.1836 -32.8613 C 63.1836 -31.6406 63.5742 -30.5176 64.4531 -29.3457 L 75.7812 -14.4043 C 77.6367 -12.0117 80.3223 -11.5723 82.5684 -13.1836 C 84.7168 -14.6973 84.9121 -17.5293 83.252 -19.7266 L 72.3145 -34.375 L 72.3145 -58.6914 C 72.3145 -61.2305 70.2637 -63.2324 67.7734 -63.2324 Z"/>
  </g>
  <g id="Medium-M" transform="matrix(1 0 0 1 1682.49 1126)">
   <path d="M 12.5488 -45.2637 C 8.69141 -45.2637 7.71484 -42.334 9.81445 -39.4531 L 21.7285 -22.9492 C 23.3887 -20.6543 25.9277 -20.7031 27.5391 -22.9492 L 39.4531 -39.502 C 41.5039 -42.2852 40.5762 -45.2637 36.7676 -45.2637 L 29.6875 -45.2637 C 34.1309 -62.793 49.9023 -75.6348 68.8965 -75.6348 C 91.3086 -75.6348 109.277 -57.666 109.277 -35.2539 C 109.277 -12.8418 91.3086 5.22461 68.8965 5.17578 C 55.8594 5.12695 44.4336 -0.976562 37.1094 -10.5957 C 35.1074 -12.8906 32.1777 -13.623 29.7852 -11.8652 C 27.5391 -10.2539 27.0996 -7.08008 29.2969 -4.39453 C 38.2812 7.32422 53.125 15.2344 68.8965 15.2344 C 96.5332 15.2344 119.385 -7.61719 119.385 -35.2539 C 119.385 -62.8906 96.5332 -85.7422 68.8965 -85.7422 C 44.6289 -85.7422 24.0723 -68.2129 19.3848 -45.2637 Z M 67.0898 -63.5254 C 64.6973 -63.5254 62.793 -61.6211 62.793 -59.2773 L 62.793 -32.8125 C 62.793 -31.6406 63.1836 -30.5664 64.0137 -29.4434 L 75.6348 -14.1113 C 77.3926 -11.8164 79.9316 -11.4258 82.0312 -12.9395 C 84.0332 -14.3555 84.2285 -16.9434 82.666 -19.043 L 71.3379 -34.2773 L 71.3379 -59.2773 C 71.3379 -61.6211 69.4336 -63.5254 67.0898 -63.5254 Z"/>
  </g>
  <g id="Regular-M" transform="matrix(1 0 0 1 1386.56 1126)">
   <path d="M 12.207 -44.6777 C 8.69141 -44.6777 7.8125 -42.2852 9.7168 -39.5508 L 20.6543 -24.0234 C 22.2656 -21.7773 24.6094 -21.8262 26.1719 -24.0234 L 37.1094 -39.5996 C 38.9648 -42.2852 38.0859 -44.6777 34.6191 -44.6777 L 27.5391 -44.6777 C 31.7871 -63.1348 48.1934 -76.709 68.0176 -76.709 C 91.0645 -76.709 109.521 -58.3008 109.521 -35.2539 C 109.521 -12.207 91.0645 6.34766 68.0176 6.25 C 54.1016 6.20117 41.8945 -0.537109 34.4238 -10.9375 C 32.9102 -12.9395 30.6152 -13.5742 28.5645 -12.3535 C 26.6113 -11.1328 26.0742 -8.44727 27.7344 -6.29883 C 37.0117 6.15234 51.5625 14.5508 68.0176 14.5508 C 95.2148 14.5508 117.822 -8.05664 117.822 -35.2539 C 117.822 -62.5 95.2148 -85.0586 68.0176 -85.0586 C 43.9941 -85.0586 23.584 -67.5293 19.0918 -44.6777 Z M 66.1621 -63.8672 C 64.0137 -63.8672 62.2559 -62.1582 62.2559 -60.0098 L 62.2559 -32.7637 C 62.2559 -31.6406 62.5977 -30.6641 63.4277 -29.5898 L 75.4883 -13.6719 C 77.0996 -11.5723 79.3457 -11.2305 81.3477 -12.5977 C 83.1543 -13.8672 83.3008 -16.1621 81.8359 -18.1641 L 70.0195 -34.082 L 70.0195 -60.0098 C 70.0195 -62.1582 68.3105 -63.8672 66.1621 -63.8672 Z"/>
  </g>
  <g id="Light-M" transform="matrix(1 0 0 1 1090.76 1126)">
   <path d="M 11.5723 -44.2383 C 8.74023 -44.2383 7.91016 -42.2852 9.57031 -39.9902 L 20.2148 -24.8047 C 21.582 -22.9004 23.4863 -22.9004 24.8047 -24.8047 L 35.4492 -39.9902 C 37.0605 -42.2852 36.2305 -44.2383 33.4473 -44.2383 L 25.3418 -44.2383 C 29.4434 -63.5254 46.5332 -77.8809 67.0898 -77.8809 C 90.6738 -77.8809 109.717 -58.8867 109.717 -35.2539 C 109.717 -11.6699 90.6738 7.4707 67.0898 7.37305 C 52.2461 7.37305 39.3066 -0.244141 31.6895 -11.6699 C 30.5664 -13.1836 28.7598 -13.6719 27.1973 -12.7441 C 25.7324 -11.8652 25.293 -9.81445 26.5137 -8.1543 C 35.6445 4.78516 50.293 13.7207 67.0898 13.7207 C 93.8965 13.7207 116.064 -8.44727 116.064 -35.2539 C 116.064 -62.1094 93.8965 -84.2285 67.0898 -84.2285 C 43.3105 -84.2285 23.1934 -66.8457 18.9453 -44.2383 Z M 65.1855 -63.2324 C 63.4766 -63.2324 62.1582 -61.9141 62.1582 -60.2539 L 62.1582 -33.4473 C 62.1582 -32.4219 62.4512 -31.6406 63.1348 -30.7617 L 75.4395 -14.502 C 76.6602 -12.9395 78.4668 -12.6953 79.9316 -13.7695 C 81.2988 -14.7461 81.4453 -16.5039 80.3223 -17.9688 L 68.1152 -34.2285 L 68.1152 -60.2539 C 68.1152 -61.9141 66.7969 -63.2324 65.1855 -63.2324 Z"/>
  </g>
  <g id="Thin-M" transform="matrix(1 0 0 1 795.216 1126)">
   <path d="M 10.7422 -43.6523 C 8.78906 -43.6523 8.10547 -42.2363 9.32617 -40.4785 L 19.5801 -25.8301 C 20.6543 -24.3652 22.0215 -24.3652 23.0469 -25.8301 L 33.3008 -40.5273 C 34.5215 -42.2363 33.8379 -43.6523 31.8848 -43.6523 L 22.4609 -43.6523 C 26.3672 -64.0137 44.3359 -79.3945 65.8203 -79.3945 C 90.2344 -79.3945 110.01 -59.6191 110.01 -35.2539 C 110.01 -10.8887 90.2344 8.93555 65.8203 8.88672 C 49.7559 8.88672 35.9375 0.195312 28.0273 -12.5977 C 27.3926 -13.4766 26.3184 -13.7695 25.3906 -13.2812 C 24.5605 -12.7441 24.2188 -11.6211 24.9512 -10.5957 C 33.8867 2.97852 48.5352 12.5977 65.8203 12.5977 C 92.1387 12.5977 113.721 -8.98438 113.721 -35.2539 C 113.721 -61.5723 92.1387 -83.1543 65.8203 -83.1543 C 42.3828 -83.1543 22.7051 -66.0156 18.7012 -43.6523 Z M 63.8672 -62.3535 C 62.8418 -62.3535 62.0117 -61.5723 62.0117 -60.5957 L 62.0117 -34.4238 C 62.0117 -33.4961 62.3047 -32.959 62.7441 -32.3242 L 75.4395 -15.625 C 76.123 -14.6973 77.2461 -14.6484 78.0273 -15.2832 C 78.8574 -15.9668 78.9551 -16.8945 78.3203 -17.7246 L 65.625 -34.375 L 65.625 -60.5957 C 65.625 -61.5723 64.7949 -62.3535 63.8672 -62.3535 Z"/>
  </g>
  <g id="Ultralight-M" transform="matrix(1 0 0 1 499.115 1126)">
   <path d="M 10.3027 -43.3594 C 8.78906 -43.3594 8.1543 -42.2363 9.22852 -40.7715 L 19.2871 -26.3184 C 20.166 -25.0977 21.2402 -25.0977 22.1191 -26.3184 L 32.1777 -40.7715 C 33.252 -42.2363 32.6172 -43.3594 31.1035 -43.3594 L 20.9961 -43.3594 C 24.8047 -64.2578 43.1641 -80.1758 65.1855 -80.1758 C 89.9902 -80.1758 110.156 -60.0586 110.156 -35.2539 C 110.156 -10.498 89.9902 9.66797 65.1855 9.66797 C 48.4863 9.66797 34.1797 0.390625 26.123 -13.0371 C 25.7812 -13.623 25.0977 -13.8184 24.4629 -13.5254 C 23.9258 -13.2324 23.6816 -12.5488 24.1211 -11.8652 C 32.959 2.05078 47.6562 12.0605 65.1855 12.0605 C 91.2109 12.0605 112.5 -9.22852 112.5 -35.2539 C 112.5 -61.2793 91.2109 -82.5684 65.1855 -82.5684 C 41.9434 -82.5684 22.4121 -65.5762 18.5547 -43.3594 Z M 63.1836 -61.9141 C 62.5 -61.9141 61.9629 -61.4258 61.9629 -60.7422 L 61.9629 -34.9121 C 61.9629 -34.082 62.207 -33.6426 62.5488 -33.1543 L 75.3906 -16.1621 C 75.8301 -15.625 76.6113 -15.625 77.0996 -16.0645 C 77.6367 -16.5527 77.6855 -17.0898 77.2461 -17.627 L 64.3555 -34.4238 L 64.3555 -60.7422 C 64.3555 -61.4258 63.8184 -61.9141 63.1836 -61.9141 Z"/>
  </g>
  <g id="Black-S" transform="matrix(1 0 0 1 2880.47 696)">
   <path d="M 10.8887 -45.0195 C 6.73828 -45.0195 5.76172 -40.8691 7.95898 -38.0859 L 20.8008 -21.7773 C 22.2168 -20.0195 25 -20.0195 26.416 -21.7773 L 39.209 -38.0859 C 41.3574 -40.8203 40.4297 -45.0195 36.3281 -45.0195 L 31.0059 -45.0195 C 34.9609 -55.5664 45.1172 -63.0371 57.0312 -63.0371 C 72.4121 -63.0371 84.8633 -50.5859 84.8633 -35.2051 C 84.8633 -19.8242 72.4121 -7.37305 57.0312 -7.37305 C 49.8047 -7.37305 43.75 -9.91211 38.3301 -14.5996 C 35.0586 -17.4805 30.7129 -18.4082 27.5391 -15.2832 C 24.7559 -12.5 24.9023 -8.34961 28.3691 -4.54102 C 34.4727 2.19727 47.0215 6.78711 57.0312 6.78711 C 80.1758 6.78711 99.0234 -12.0605 99.0234 -35.2051 C 99.0234 -58.3496 80.1758 -77.1973 57.0312 -77.1973 C 37.2559 -77.1973 20.6543 -63.4766 16.2109 -45.0195 Z M 55.7129 -56.1523 C 53.0762 -56.1523 50.9766 -54.0527 50.9766 -51.4648 L 50.9766 -33.5449 C 50.9766 -32.4219 51.416 -31.25 52.1973 -30.2246 L 59.8633 -20.1172 C 61.6699 -17.7246 64.5508 -17.2852 66.748 -18.8965 C 68.8965 -20.5078 69.0918 -23.584 67.5293 -25.6348 L 60.4004 -35.0586 L 60.4004 -51.4648 C 60.4004 -54.0527 58.3008 -56.1523 55.7129 -56.1523 Z"/>
  </g>
  <g id="Heavy-S" transform="matrix(1 0 0 1 2584.44 696)">
   <path d="M 10.6445 -44.5312 C 6.78711 -44.5312 5.85938 -40.8691 7.91016 -38.1836 L 19.7754 -22.8027 C 21.1914 -20.9961 23.7793 -20.9961 25.1953 -22.8027 L 37.0117 -38.1836 C 39.0137 -40.8203 38.1348 -44.5312 34.2773 -44.5312 L 28.9551 -44.5312 C 32.8125 -55.8594 43.5547 -64.0137 56.25 -64.0137 C 72.2168 -64.0137 85.0586 -51.1719 85.0586 -35.2051 C 85.0586 -19.2871 72.2168 -6.39648 56.25 -6.39648 C 48.291 -6.39648 41.4551 -9.52148 35.9863 -14.8926 C 33.1543 -17.5293 29.3457 -18.3594 26.5137 -15.7227 C 23.9258 -13.3301 23.9258 -9.57031 26.9531 -6.20117 C 33.3496 1.17188 45.6055 6.15234 56.25 6.15234 C 79.0039 6.15234 97.6562 -12.4512 97.6562 -35.2051 C 97.6562 -57.959 79.0039 -76.6113 56.25 -76.6113 C 36.6699 -76.6113 20.166 -62.8418 15.918 -44.5312 Z M 54.9316 -56.5918 C 52.4414 -56.5918 50.4883 -54.6387 50.4883 -52.1973 L 50.4883 -33.3984 C 50.4883 -32.3242 50.8789 -31.25 51.6602 -30.2246 L 59.7168 -19.6289 C 61.4258 -17.334 64.1113 -16.8945 66.2109 -18.4082 C 68.2129 -19.9219 68.4082 -22.7539 66.8945 -24.7559 L 59.3262 -34.8633 L 59.3262 -52.1973 C 59.3262 -54.6387 57.373 -56.5918 54.9316 -56.5918 Z"/>
  </g>
  <g id="Bold-S" transform="matrix(1 0 0 1 2288.51 696)">
   <path d="M 10.4004 -43.9453 C 6.78711 -43.9453 5.9082 -40.8203 7.8125 -38.2812 L 18.6035 -23.9258 C 20.0195 -22.0703 22.4121 -22.1191 23.7793 -23.9258 L 34.5215 -38.2812 C 36.4258 -40.7715 35.5469 -43.9453 31.9824 -43.9453 L 26.7578 -43.9453 C 30.4688 -56.25 41.8457 -65.0879 55.3711 -65.0879 C 71.9727 -65.0879 85.3027 -51.8066 85.3027 -35.2539 C 85.3027 -18.6523 71.9727 -5.27344 55.3711 -5.32227 C 46.5332 -5.37109 38.916 -9.08203 33.3008 -15.2344 C 31.0059 -17.5781 27.7832 -18.3105 25.293 -16.2109 C 22.998 -14.2578 22.8516 -10.9863 25.3418 -8.10547 C 32.0801 0 44.043 5.46875 55.3711 5.46875 C 77.7344 5.46875 96.0938 -12.8906 96.0938 -35.2539 C 96.0938 -57.5684 77.7344 -75.9277 55.3711 -75.9277 C 36.0352 -75.9277 19.6289 -62.1582 15.625 -43.9453 Z M 54.0039 -57.0801 C 51.709 -57.0801 49.9023 -55.2734 49.9023 -52.9785 L 49.9023 -33.252 C 49.9023 -32.2266 50.293 -31.2012 51.0254 -30.2246 L 59.5215 -19.043 C 61.1328 -16.8945 63.5742 -16.5039 65.5762 -17.9199 C 67.4805 -19.2871 67.627 -21.875 66.2109 -23.7793 L 58.1055 -34.668 L 58.1055 -52.9785 C 58.1055 -55.2734 56.25 -57.0801 54.0039 -57.0801 Z"/>
  </g>
  <g id="Semibold-S" transform="matrix(1 0 0 1 1992.34 696)">
   <path d="M 10.2051 -43.5547 C 6.78711 -43.5547 5.95703 -40.8203 7.76367 -38.3301 L 17.8223 -24.707 C 19.1895 -22.8516 21.4844 -22.8516 22.8027 -24.707 L 32.8125 -38.3789 C 34.6191 -40.7715 33.7891 -43.5547 30.4199 -43.5547 L 25.2441 -43.5547 C 28.8086 -56.4941 40.625 -65.8691 54.7852 -65.8691 C 71.7773 -65.8691 85.4492 -52.2461 85.4492 -35.2539 C 85.4492 -18.2129 71.7773 -4.54102 54.7852 -4.58984 C 45.3613 -4.63867 37.1094 -8.74023 31.4941 -15.4785 C 29.541 -17.627 26.709 -18.2617 24.4629 -16.5039 C 22.3633 -14.8926 22.1191 -11.9141 24.2188 -9.42383 C 31.1523 -0.78125 42.9199 4.98047 54.7852 4.98047 C 76.8066 4.98047 95.0195 -13.1836 95.0195 -35.2539 C 95.0195 -57.2754 76.8066 -75.4883 54.7852 -75.4883 C 35.5469 -75.4883 19.2871 -61.6699 15.4297 -43.5547 Z M 53.3691 -57.4219 C 51.2207 -57.4219 49.5117 -55.7129 49.5117 -53.5645 L 49.5117 -33.1055 C 49.5117 -32.1289 49.8535 -31.2012 50.5859 -30.2246 L 59.375 -18.6523 C 60.9375 -16.5527 63.2324 -16.2109 65.1367 -17.5781 C 66.9434 -18.8477 67.0898 -21.2402 65.7227 -23.0957 L 57.2266 -34.5215 L 57.2266 -53.5645 C 57.2266 -55.7129 55.5176 -57.4219 53.3691 -57.4219 Z"/>
  </g>
  <g id="Medium-S" transform="matrix(1 0 0 1 1696.04 696)">
   <path d="M 10.0586 -43.2617 C 6.78711 -43.2617 6.00586 -40.7715 7.76367 -38.3789 L 17.1875 -25.3418 C 18.5547 -23.3887 20.752 -23.4375 22.0703 -25.3418 L 31.543 -38.4277 C 33.252 -40.7715 32.4219 -43.2617 29.1992 -43.2617 L 24.1211 -43.2617 C 27.5879 -56.6406 39.7461 -66.4062 54.2969 -66.4062 C 71.6309 -66.4062 85.5469 -52.5879 85.5469 -35.2539 C 85.5469 -17.9199 71.6309 -3.95508 54.2969 -4.00391 C 44.4336 -4.05273 35.791 -8.49609 30.0781 -15.625 C 28.418 -17.627 25.9277 -18.2617 23.8281 -16.7969 C 21.875 -15.3809 21.5332 -12.6465 23.3887 -10.4004 C 30.5176 -1.36719 42.0898 4.63867 54.2969 4.63867 C 76.123 4.63867 94.1895 -13.4277 94.1895 -35.2539 C 94.1895 -57.0801 76.123 -75.1465 54.2969 -75.1465 C 35.2051 -75.1465 18.9941 -61.3281 15.2344 -43.2617 Z M 52.9297 -57.666 C 50.8789 -57.666 49.2188 -56.0059 49.2188 -53.9551 L 49.2188 -33.0566 C 49.2188 -32.0801 49.5117 -31.1523 50.2441 -30.2246 L 59.2773 -18.3594 C 60.791 -16.3574 62.9395 -16.0156 64.7949 -17.2852 C 66.5527 -18.5059 66.6992 -20.8008 65.332 -22.6074 L 56.5918 -34.4238 L 56.5918 -53.9551 C 56.5918 -56.0059 54.9316 -57.666 52.9297 -57.666 Z"/>
  </g>
  <g id="Regular-S" transform="matrix(1 0 0 1 1399.84 696)">
   <path d="M 9.86328 -42.8711 C 6.78711 -42.8711 6.05469 -40.7715 7.71484 -38.4277 L 16.4062 -26.0742 C 17.7734 -24.1699 19.8242 -24.1699 21.1426 -26.0742 L 29.834 -38.4766 C 31.4453 -40.7715 30.6641 -42.8711 27.6367 -42.8711 L 22.6562 -42.8711 C 25.9766 -56.8848 38.5742 -67.1875 53.7109 -67.1875 C 71.4844 -67.1875 85.6934 -53.0273 85.6934 -35.2539 C 85.6934 -17.4805 71.4844 -3.17383 53.7109 -3.27148 C 43.2617 -3.32031 34.0332 -8.20312 28.2715 -15.8691 C 26.9531 -17.6758 24.8535 -18.2129 23.0469 -17.0898 C 21.2402 -16.0156 20.8008 -13.5742 22.2656 -11.6699 C 29.6387 -2.14844 41.0156 4.15039 53.7109 4.15039 C 75.2441 4.15039 93.1641 -13.7207 93.1641 -35.2539 C 93.1641 -56.7871 75.2441 -74.6582 53.7109 -74.6582 C 34.7656 -74.6582 18.6523 -60.8398 15.0391 -42.8711 Z M 52.2949 -58.0078 C 50.3906 -58.0078 48.8281 -56.4453 48.8281 -54.541 L 48.8281 -32.9102 C 48.8281 -32.0312 49.1211 -31.1523 49.8047 -30.2246 L 59.1309 -17.9688 C 60.5957 -16.0156 62.5977 -15.7227 64.4043 -16.9434 C 66.0156 -18.0664 66.1621 -20.166 64.8438 -21.9238 L 55.7617 -34.2773 L 55.7617 -54.541 C 55.7617 -56.4453 54.1992 -58.0078 52.2949 -58.0078 Z"/>
  </g>
  <g id="Light-S" transform="matrix(1 0 0 1 1103.91 696)">
   <path d="M 9.32617 -42.4316 C 6.83594 -42.4316 6.15234 -40.7715 7.56836 -38.7695 L 16.0156 -26.7578 C 17.1387 -25.1465 18.8477 -25.1465 19.9707 -26.7578 L 28.418 -38.8184 C 29.7852 -40.7715 29.1016 -42.4316 26.6602 -42.4316 L 20.7031 -42.4316 C 23.9746 -57.2266 37.1094 -68.2129 52.8809 -68.2129 C 71.1914 -68.2129 85.8887 -53.5156 85.8887 -35.2539 C 85.8887 -16.9922 71.1914 -2.19727 52.8809 -2.29492 C 41.6504 -2.29492 31.7871 -7.91016 25.8789 -16.5039 C 24.8535 -17.8711 23.2422 -18.3105 21.8262 -17.4316 C 20.5078 -16.6504 20.1172 -14.7949 21.2402 -13.3301 C 28.4668 -3.36914 39.8926 3.41797 52.8809 3.41797 C 74.0723 3.41797 91.6016 -14.0625 91.6016 -35.2539 C 91.6016 -56.4453 74.0723 -73.9258 52.8809 -73.9258 C 34.1797 -73.9258 18.3105 -60.2539 14.8926 -42.4316 Z M 51.416 -57.4219 C 49.9512 -57.4219 48.7305 -56.25 48.7305 -54.7363 L 48.7305 -33.5938 C 48.7305 -32.7148 48.9746 -32.0312 49.5605 -31.25 L 59.1309 -18.7012 C 60.2051 -17.2363 61.8164 -16.9922 63.1348 -17.9688 C 64.4043 -18.8477 64.502 -20.4102 63.5254 -21.7773 L 54.1016 -34.375 L 54.1016 -54.7363 C 54.1016 -56.25 52.8809 -57.4219 51.416 -57.4219 Z"/>
  </g>
  <g id="Thin-S" transform="matrix(1 0 0 1 808.229 696)">
   <path d="M 8.59375 -41.9434 C 6.88477 -41.9434 6.29883 -40.7227 7.37305 -39.2578 L 15.4785 -27.6367 C 16.3574 -26.416 17.5293 -26.416 18.4082 -27.6367 L 26.5137 -39.2578 C 27.5391 -40.7227 27.002 -41.9434 25.293 -41.9434 L 18.1641 -41.9434 C 21.2402 -57.7148 35.1562 -69.5312 51.8066 -69.5312 C 70.8008 -69.5312 86.1328 -54.1992 86.1328 -35.2539 C 86.1328 -16.3086 70.8008 -0.927734 51.8066 -0.927734 C 39.4531 -0.976562 28.8086 -7.56836 22.6562 -17.2852 C 22.0703 -18.1152 21.0938 -18.4082 20.2637 -17.9199 C 19.4824 -17.4316 19.1895 -16.3574 19.8242 -15.4785 C 26.9043 -4.93164 38.3789 2.49023 51.8066 2.49023 C 72.5098 2.49023 89.5508 -14.5508 89.5508 -35.2539 C 89.5508 -55.957 72.5098 -72.998 51.8066 -72.998 C 33.3984 -72.998 17.8711 -59.5215 14.6973 -41.9434 Z M 50.293 -56.6406 C 49.3652 -56.6406 48.6328 -55.957 48.6328 -55.0293 L 48.6328 -34.4238 C 48.6328 -33.6914 48.8281 -33.2031 49.2676 -32.666 L 59.1309 -19.6289 C 59.7656 -18.7988 60.7422 -18.75 61.5234 -19.2871 C 62.2559 -19.873 62.3535 -20.752 61.7188 -21.582 L 51.9043 -34.5215 L 51.9043 -55.0293 C 51.9043 -55.957 51.1719 -56.6406 50.293 -56.6406 Z"/>
  </g>
  <g id="Ultralight-S" transform="matrix(1 0 0 1 512.055 696)">
   <path d="M 8.20312 -41.6504 C 6.88477 -41.6504 6.39648 -40.7227 7.27539 -39.502 L 15.2344 -28.125 C 15.918 -27.0996 16.8945 -27.0996 17.5781 -28.125 L 25.5371 -39.502 C 26.416 -40.7227 25.9277 -41.6504 24.6094 -41.6504 L 16.8457 -41.6504 C 19.873 -57.9102 34.1309 -70.2637 51.2695 -70.2637 C 70.5566 -70.2637 86.2793 -54.541 86.2793 -35.2539 C 86.2793 -15.9668 70.5566 -0.244141 51.2695 -0.244141 C 38.3789 -0.244141 27.2949 -7.37305 20.9961 -17.7246 C 20.6543 -18.2617 20.0195 -18.457 19.4336 -18.1641 C 18.9453 -17.8711 18.75 -17.1875 19.1406 -16.6016 C 26.0742 -5.76172 37.5977 1.95312 51.2695 1.95312 C 71.7285 1.95312 88.4766 -14.7949 88.4766 -35.2539 C 88.4766 -55.7129 71.7285 -72.4609 51.2695 -72.4609 C 33.0078 -72.4609 17.6758 -59.082 14.5996 -41.6504 Z M 49.707 -56.25 C 49.0723 -56.25 48.584 -55.8105 48.584 -55.1758 L 48.584 -34.8633 C 48.584 -34.1797 48.7793 -33.7891 49.0723 -33.3984 L 59.082 -20.166 C 59.5215 -19.6289 60.2051 -19.6289 60.6445 -20.0195 C 61.1816 -20.4102 61.2305 -20.9473 60.8398 -21.4844 L 50.7812 -34.5703 L 50.7812 -55.1758 C 50.7812 -55.8105 50.293 -56.25 49.707 -56.25 Z"/>
  </g>
 </g>
</svg>
